<?xml version="1.0" standalone="no"?>
<!DOCTYPE svg PUBLIC "-//W3C//DTD SVG 20010904//EN"
 "http://www.w3.org/TR/2001/REC-SVG-20010904/DTD/svg10.dtd">
<svg version="1.0" xmlns="http://www.w3.org/2000/svg"
 width="25px" height="25px" viewBox="0 0 48.000000 48.000000"
 preserveAspectRatio="xMidYMid meet">

<g transform="translate(0.000000,48.000000) scale(0.100000,-0.100000)"
fill="#ffffff" stroke="none">
<path d="M94 435 c-4 -8 -14 -15 -24 -15 -39 0 -45 -26 -45 -186 0 -189 0
-189 112 -189 52 0 78 4 80 13 4 9 -13 12 -60 12 -100 0 -97 -3 -97 111 l0 99
179 0 c179 0 180 0 183 -22 2 -13 10 -23 18 -23 12 0 15 15 15 77 -1 78 -13
108 -43 108 -8 0 -21 8 -28 18 -13 16 -15 16 -28 0 -8 -12 -27 -18 -51 -18
-24 0 -43 6 -51 18 -13 16 -15 16 -28 0 -17 -23 -91 -25 -100 -3 -3 8 -10 15
-16 15 -6 0 -13 -7 -16 -15z m4 -57 c9 -9 15 -9 24 0 7 7 30 12 53 12 23 0 46
-5 53 -12 9 -9 15 -9 24 0 16 16 90 16 106 0 9 -9 15 -9 24 0 24 24 38 13 38
-28 l0 -40 -180 0 -180 0 0 40 c0 41 14 52 38 28z"/>
<path d="M269 211 c-42 -42 -42 -110 0 -152 42 -42 110 -42 152 0 24 24 29 38
29 76 0 38 -5 52 -29 76 -24 24 -38 29 -76 29 -38 0 -52 -5 -76 -29z m131 -21
c12 -12 20 -33 20 -55 0 -46 -29 -75 -75 -75 -46 0 -75 29 -75 75 0 22 8 43
20 55 12 12 33 20 55 20 22 0 43 -8 55 -20z"/>
<path d="M330 163 c1 -31 21 -63 39 -63 14 0 15 27 1 35 -5 3 -10 17 -10 31 0
15 -6 24 -15 24 -10 0 -15 -10 -15 -27z"/>
</g>
</svg>
