<?xml version="1.0" standalone="no"?>
<!DOCTYPE svg PUBLIC "-//W3C//DTD SVG 20010904//EN"
 "http://www.w3.org/TR/2001/REC-SVG-20010904/DTD/svg10.dtd">
<svg version="1.0" xmlns="http://www.w3.org/2000/svg"
 width="50px" height="30px" viewBox="0 0 326.000000 290.000000"
 preserveAspectRatio="xMidYMid meet">

<g transform="translate(0.000000,290.000000) scale(0.100000,-0.100000)"
fill="#0082ca" stroke="none">
<path d="M487 2884 c-73 -23 -131 -84 -153 -162 l-17 -62 -89 0 c-104 0 -141
-13 -185 -63 -56 -64 -56 -150 0 -214 44 -51 81 -63 187 -63 l90 0 0 -180 0
-180 -80 0 c-95 0 -134 -14 -177 -63 -56 -64 -56 -150 0 -214 43 -49 82 -63
177 -63 l80 0 0 -180 0 -180 -80 0 c-95 0 -134 -14 -177 -63 -56 -64 -56 -150
0 -214 43 -49 82 -63 177 -63 l80 0 0 -170 0 -170 -80 0 c-95 0 -134 -14 -177
-63 -56 -64 -56 -150 0 -214 43 -49 82 -63 175 -63 l79 0 16 -60 c13 -44 28
-71 59 -104 78 -80 13 -76 1198 -76 1177 0 1115 -4 1194 73 56 53 76 117 76
239 l0 88 80 0 80 0 0 440 0 440 -80 0 -80 0 0 200 0 200 153 0 c168 0 188 5
224 59 23 34 23 36 23 380 0 378 0 379 -59 418 -32 21 -44 23 -187 23 l-154 0
0 58 c0 88 -24 155 -73 206 -77 80 -12 76 -1201 75 -894 0 -1058 -3 -1099 -15z
m1853 -559 c54 -28 60 -54 60 -265 0 -211 -6 -237 -60 -265 -44 -23 -1276 -23
-1320 0 -54 28 -60 54 -60 265 0 209 6 236 58 264 41 23 1279 23 1322 1z"/>
</g>
</svg>
