<?xml version="1.0" standalone="no"?>
<!DOCTYPE svg PUBLIC "-//W3C//DTD SVG 20010904//EN"
 "http://www.w3.org/TR/2001/REC-SVG-20010904/DTD/svg10.dtd">
<svg version="1.0" xmlns="http://www.w3.org/2000/svg"
 width="25px" height="25px" viewBox="0 0 512.000000 512.000000"
 preserveAspectRatio="xMidYMid meet">

<g transform="translate(0.000000,512.000000) scale(0.100000,-0.100000)"
fill="#ffffff" stroke="none">
<path d="M2365 5114 c-286 -29 -503 -80 -733 -169 -595 -233 -1089 -690 -1373
-1269 -121 -249 -199 -507 -241 -801 -17 -118 -17 -512 0 -630 80 -563 312
-1048 692 -1449 403 -425 929 -691 1535 -778 118 -17 512 -17 630 0 294 42
552 120 800 241 721 354 1239 1022 1394 1796 38 188 46 277 46 505 0 228 -8
317 -46 505 -101 504 -365 981 -745 1345 -189 182 -400 328 -649 451 -239 117
-478 191 -755 234 -101 15 -468 28 -555 19z m400 -304 c498 -46 977 -263 1348
-610 303 -284 542 -695 640 -1101 49 -201 61 -309 61 -539 0 -230 -12 -338
-61 -539 -78 -325 -246 -653 -471 -921 -296 -354 -732 -624 -1183 -733 -201
-49 -309 -61 -539 -61 -231 0 -338 12 -540 61 -396 96 -810 334 -1087 626
-456 480 -682 1125 -623 1772 54 583 345 1143 790 1518 464 390 1069 582 1665
527z"/>
<path d="M2356 4499 c-446 -47 -856 -245 -1176 -568 -236 -237 -391 -495 -486
-809 -62 -204 -77 -317 -77 -562 0 -245 15 -358 78 -564 94 -310 251 -572 485
-807 592 -597 1482 -748 2235 -379 561 274 953 797 1067 1420 30 165 30 495 0
660 -186 1017 -1109 1716 -2126 1609z m483 -313 c343 -63 640 -217 881 -456
247 -246 401 -542 467 -893 23 -128 23 -426 0 -554 -65 -348 -222 -649 -467
-893 -237 -237 -538 -392 -883 -457 -128 -23 -426 -23 -554 0 -351 66 -648
221 -893 468 -731 736 -607 1953 258 2532 210 140 464 234 729 267 96 12 362
4 462 -14z"/>
<path d="M2492 3894 c-62 -32 -77 -66 -80 -187 -4 -107 -4 -107 -30 -113 -189
-40 -343 -126 -442 -244 -199 -240 -166 -543 82 -756 67 -57 210 -129 308
-153 l75 -19 3 -297 2 -296 -22 6 c-57 17 -149 66 -187 101 -53 47 -81 101
-91 175 -14 101 -77 156 -166 146 -143 -16 -175 -177 -75 -375 79 -157 260
-291 461 -341 l75 -19 5 -103 c6 -122 22 -159 80 -189 50 -25 90 -25 140 0 58
30 74 67 80 189 l5 103 75 19 c80 20 194 71 257 113 70 48 161 147 197 216 82
156 87 304 15 455 -88 186 -270 315 -521 369 l-28 6 0 296 0 296 28 -6 c62
-15 151 -68 199 -119 51 -54 73 -102 73 -161 0 -46 39 -104 85 -126 52 -25 78
-25 131 1 97 46 110 184 33 344 -88 186 -270 315 -521 369 l-28 6 0 96 c0 109
-14 151 -63 186 -39 28 -112 34 -155 12z m-82 -885 l0 -280 -22 6 c-58 17
-149 66 -188 101 -48 43 -90 122 -90 169 0 77 50 158 133 217 32 23 134 67
155 68 9 0 12 -63 12 -281z m416 -659 c109 -53 184 -153 184 -245 0 -47 -42
-126 -90 -169 -39 -35 -130 -84 -187 -101 l-23 -6 0 281 0 282 28 -6 c15 -4
54 -20 88 -36z"/>
</g>
</svg>
