<?xml version="1.0" standalone="no"?>
<!DOCTYPE svg PUBLIC "-//W3C//DTD SVG 20010904//EN"
 "http://www.w3.org/TR/2001/REC-SVG-20010904/DTD/svg10.dtd">
<svg version="1.0" xmlns="http://www.w3.org/2000/svg"
 width="25px" height="25px" viewBox="0 0 128.000000 128.000000"
 preserveAspectRatio="xMidYMid meet">

<g transform="translate(0.000000,128.000000) scale(0.100000,-0.100000)"
fill="#ffffff" stroke="none">
<path d="M565 1273 c-270 -42 -472 -220 -541 -474 -23 -85 -23 -233 0 -318 77
-285 323 -474 616 -474 243 0 455 129 565 344 49 96 68 178 68 289 0 343 -259
615 -605 634 -40 2 -86 2 -103 -1z m190 -78 c247 -52 431 -263 451 -520 7 -82
-13 -190 -49 -268 -27 -58 -112 -177 -126 -177 -5 0 -21 25 -35 55 -30 67
-101 144 -160 176 l-44 23 47 52 c162 177 41 457 -199 457 -150 0 -270 -115
-272 -260 -1 -84 19 -138 73 -197 l47 -52 -44 -23 c-59 -32 -130 -109 -160
-176 -14 -30 -30 -55 -35 -55 -14 0 -99 119 -126 177 -28 60 -53 170 -53 233
0 202 129 411 310 503 125 63 244 79 375 52z m-9 -300 c128 -75 131 -262 5
-345 -61 -41 -153 -43 -217 -5 -94 55 -127 183 -71 278 60 101 181 132 283 72z
m10 -472 c70 -24 165 -120 189 -192 21 -63 20 -65 -72 -108 -156 -73 -362 -64
-508 22 -43 25 -46 29 -40 58 17 81 117 192 198 220 58 21 172 21 233 0z"/>
</g>
</svg>
