<?xml version="1.0" standalone="no"?>
<!DOCTYPE svg PUBLIC "-//W3C//DTD SVG 20010904//EN"
 "http://www.w3.org/TR/2001/REC-SVG-20010904/DTD/svg10.dtd">
<svg version="1.0" xmlns="http://www.w3.org/2000/svg"
 width="25px" height="25px" viewBox="0 0 512.000000 512.000000"
 preserveAspectRatio="xMidYMid meet">

<g transform="translate(0.000000,512.000000) scale(0.100000,-0.100000)"
fill="#ffffff" stroke="none">
<path d="M3535 5114 c-94 -11 -257 -48 -345 -81 -191 -70 -352 -170 -497 -307
-213 -201 -352 -442 -421 -729 -25 -104 -27 -126 -26 -327 1 -184 4 -227 22
-295 l21 -80 -1063 -1065 c-585 -586 -1078 -1086 -1095 -1113 -159 -235 -171
-530 -34 -767 49 -83 170 -204 253 -253 237 -137 532 -125 767 34 27 17 527
510 1113 1095 l1065 1063 80 -21 c68 -18 111 -21 295 -22 201 -1 223 1 327 26
287 69 528 208 729 421 185 196 309 434 365 702 19 90 23 141 23 285 0 190
-17 301 -71 459 -43 127 -80 161 -171 161 -35 0 -58 -6 -78 -22 -16 -11 -204
-196 -419 -409 l-390 -388 -204 45 c-113 24 -206 46 -208 47 -1 2 -23 95 -47
208 l-45 204 388 390 c213 215 398 403 409 419 16 20 22 43 22 78 0 91 -34
128 -161 171 -134 46 -262 68 -419 71 -80 2 -163 2 -185 0z m313 -311 c9 -4
-95 -115 -321 -342 -184 -185 -340 -346 -346 -358 -6 -12 -11 -40 -11 -62 0
-61 126 -638 147 -674 10 -17 33 -40 50 -50 36 -21 613 -147 674 -147 22 0 50
5 62 11 12 6 173 162 358 346 268 267 338 332 342 317 14 -47 17 -187 7 -274
-46 -402 -277 -738 -625 -910 -272 -134 -544 -154 -865 -65 -127 35 -9 140
-1260 -1109 -1214 -1211 -1151 -1154 -1290 -1175 -129 -21 -252 20 -346 113
-93 94 -134 217 -113 346 21 139 -36 76 1175 1290 1249 1251 1144 1133 1109
1260 -35 127 -46 186 -52 297 -37 674 518 1231 1191 1196 55 -3 106 -7 114
-10z"/>
</g>
</svg>
