<?xml version="1.0" standalone="no"?>
<!DOCTYPE svg PUBLIC "-//W3C//DTD SVG 20010904//EN"
 "http://www.w3.org/TR/2001/REC-SVG-20010904/DTD/svg10.dtd">
<svg version="1.0" xmlns="http://www.w3.org/2000/svg"
 width="25px" height="28px" viewBox="0 0 48.000000 48.000000"
 preserveAspectRatio="xMidYMid meet">

<g transform="translate(0.000000,48.000000) scale(0.100000,-0.100000)"
fill="#ffffff" stroke="none">
<path d="M52 243 l3 -198 155 0 155 0 3 33 c3 30 6 32 43 32 l39 0 0 84 c0 58
-4 87 -14 95 -7 6 -11 21 -9 34 3 15 -5 31 -26 51 -17 17 -31 38 -31 48 0 17
-12 18 -160 18 l-160 0 2 -197z m91 157 c4 -17 14 -20 67 -20 53 0 63 3 67 20
7 27 73 29 73 3 0 -25 -40 -63 -67 -63 -15 0 -43 -18 -73 -46 -43 -40 -49 -51
-48 -83 1 -20 -2 -49 -6 -65 -9 -28 -8 -29 20 -22 16 4 41 13 57 21 23 12 34
11 72 -2 37 -12 45 -19 45 -39 l0 -24 -140 0 -140 0 0 170 0 170 34 0 c25 0
35 -5 39 -20z m117 10 c0 -5 -22 -10 -50 -10 -27 0 -50 5 -50 10 0 6 23 10 50
10 28 0 50 -4 50 -10z m130 -55 c10 -12 10 -19 2 -27 -15 -15 -48 14 -38 31
10 15 21 14 36 -4z m-40 -40 c20 -24 -41 -83 -89 -87 -34 -3 -36 -5 -35 -35 2
-36 -7 -41 -26 -17 -12 13 -3 25 56 85 37 38 71 69 75 69 4 0 12 -7 19 -15z
m-115 -45 c-27 -27 -51 -47 -54 -45 -6 7 80 95 93 95 6 0 -12 -22 -39 -50z
m183 8 c7 -7 12 -38 12 -70 l0 -58 -47 1 c-55 0 -134 27 -141 48 -4 11 5 12
39 8 35 -5 49 -3 67 13 13 11 21 24 17 30 -8 13 12 40 29 40 7 0 17 -5 24 -12z"/>
<path d="M100 130 c0 -5 7 -10 15 -10 8 0 15 5 15 10 0 6 -7 10 -15 10 -8 0
-15 -4 -15 -10z"/>
</g>
</svg>
